<svg id="Layer_1" data-name="Layer 1" xmlns="http://www.w3.org/2000/svg" viewBox="0 0 301.55 43.11"><defs><style>.cls-1{fill:#d29847;}.cls-2{fill:#002453;}</style></defs><path class="cls-1" d="M72.11,35.45h0c.17,1,.29,2,.36,3.1l0,.44H52.08a19.2,19.2,0,0,1-10.23-3.21l-.41-.27h0l.33-.36A19.92,19.92,0,0,0,45.25,30,9,9,0,0,0,46,26.29a8.13,8.13,0,0,0-1.3-4.44,7.59,7.59,0,0,0-12.62,0,8.13,8.13,0,0,0-1.3,4.44A9,9,0,0,0,31.61,30a19.92,19.92,0,0,0,3.48,5.19l.33.36h0l-.41.27A19.2,19.2,0,0,1,24.78,39H4.35l0-.44A34,34,0,0,1,51.12,9.22h0V4.79A38.11,38.11,0,0,0,38.43,2.57,38.55,38.55,0,0,0,.13,41.07v2.08H24.79a23.33,23.33,0,0,0,13.62-4.61l0,0,0,0a23.33,23.33,0,0,0,13.62,4.61H76.73V41.07a38.62,38.62,0,0,0-.42-5.62Zm-33.6-2.93-.08.09-.08-.09a15.49,15.49,0,0,1-2.93-4.24A4.66,4.66,0,0,1,35,26.1a3.94,3.94,0,0,1,.61-2,3.43,3.43,0,0,1,5.64,0,3.94,3.94,0,0,1,.61,2,4.66,4.66,0,0,1-.42,2.18A15.49,15.49,0,0,1,38.51,32.52Z" transform="translate(-0.13 -0.04)"/><path class="cls-2" d="M82.56,28.13a10.58,10.58,0,0,1-8.8,4.61c-6.44,0-11.18-5.25-11.18-12.29S67.32,8.16,73.86,8.16a10.41,10.41,0,0,1,8.7,4.46V0h4.69V32.28H82.56ZM75,28.78c4.28,0,7.55-3.55,7.55-8.33S79.29,12.07,75,12.07s-7.55,3.59-7.55,8.38,3.26,8.33,7.55,8.33" transform="translate(-0.13 -0.04)"/><path class="cls-2" d="M103.38,8.16c7.41,0,13,5.75,12.29,13.67H95.87c.51,4.19,3.64,7.09,7.51,7.09a6.94,6.94,0,0,0,6.53-4.15h5c-1.61,4.84-5.89,8-11.55,8A12,12,0,0,1,91,20.45,12,12,0,0,1,103.38,8.16m7.36,10.08a7.46,7.46,0,0,0-14.73,0Z" transform="translate(-0.13 -0.04)"/><path class="cls-2" d="M129.57,18.56a40.18,40.18,0,0,1,5.71.51V17.13c0-3.17-2.17-5.25-5.57-5.25s-5.44,1.62-5.62,4.56h-4.7c.24-4.83,3.69-8.28,10.32-8.28,6.4,0,10.26,3.45,10.26,9.25V32.28h-4.69V28.41a10.75,10.75,0,0,1-8.89,4.33c-4.28,0-7.82-2.17-7.82-6.72,0-4.74,4-7.46,11-7.46M127.68,29.1a7.78,7.78,0,0,0,7.6-6.54,33.43,33.43,0,0,0-5.62-.55c-4.56,0-6.31,1.57-6.31,3.73,0,2.39,1.8,3.36,4.33,3.36" transform="translate(-0.13 -0.04)"/><rect class="cls-2" x="144.89" width="4.69" height="32.24"/><rect class="cls-2" x="54" width="4.69" height="32.24"/><rect class="cls-2" x="165.02" width="4.7" height="32.24"/><path class="cls-2" d="M175.1,8.62h4.7v2.9a8.45,8.45,0,0,1,6.95-3.36,8.29,8.29,0,0,1,7.55,4.14,8.7,8.7,0,0,1,7.78-4.14c5.38,0,9.16,3.63,9.16,8.79V32.28h-4.7V17.5a5.53,5.53,0,0,0-11,.05V32.28H190.8V17.5a5.5,5.5,0,0,0-11,.05V32.28h-4.7Z" transform="translate(-0.13 -0.04)"/><path class="cls-2" d="M226.36,18.56a40.06,40.06,0,0,1,5.71.51V17.13c0-3.17-2.16-5.25-5.57-5.25s-5.43,1.62-5.61,4.56h-4.7c.23-4.83,3.68-8.28,10.31-8.28,6.4,0,10.27,3.45,10.27,9.25V32.28h-4.7V28.41a10.74,10.74,0,0,1-8.88,4.33c-4.28,0-7.83-2.17-7.83-6.72,0-4.74,4-7.46,11-7.46M224.48,29.1a7.76,7.76,0,0,0,7.59-6.54,33.42,33.42,0,0,0-5.61-.55c-4.56,0-6.31,1.57-6.31,3.73,0,2.39,1.79,3.36,4.33,3.36" transform="translate(-0.13 -0.04)"/><path class="cls-2" d="M246.22,32.74c.46,3.08,3.27,5.34,7,5.34,4.52,0,7.65-2.86,7.65-7.18V27.4a10.73,10.73,0,0,1-8.8,4.42c-6.44,0-11.18-5.07-11.18-11.83s4.74-11.83,11.28-11.83a10.6,10.6,0,0,1,8.7,4.28V8.62h4.69V30.21c0,7-5.25,11.73-12.34,11.73-6.21,0-11.14-3.82-11.78-9.2Zm7.14-4.88A7.55,7.55,0,0,0,260.91,20a7.56,7.56,0,1,0-15.1,0,7.54,7.54,0,0,0,7.55,7.87" transform="translate(-0.13 -0.04)"/><path class="cls-2" d="M282.09,8.16c7.41,0,13,5.75,12.29,13.67H274.59c.51,4.19,3.63,7.09,7.5,7.09a7,7,0,0,0,6.54-4.15h5c-1.61,4.84-5.9,8-11.56,8a12,12,0,0,1-12.38-12.29A12,12,0,0,1,282.09,8.16m7.37,10.08a7.46,7.46,0,0,0-14.73,0Z" transform="translate(-0.13 -0.04)"/><path class="cls-2" d="M297.24,2a4.3,4.3,0,0,1,4.44,4.37,4.44,4.44,0,0,1-8.87,0A4.3,4.3,0,0,1,297.24,2m0,7.68a3.21,3.21,0,0,0,3.23-3.31,3.23,3.23,0,1,0-6.45,0,3.21,3.21,0,0,0,3.22,3.31M295.36,4h2.3a1.52,1.52,0,0,1,1.63,1.52,1.49,1.49,0,0,1-.84,1.35l.92,1.76h-1.2L297.38,7h-1v1.6h-1Zm2.19,2.14a.61.61,0,0,0,.67-.65.6.6,0,0,0-.67-.59H296.4V6.15Z" transform="translate(-0.13 -0.04)"/></svg>